<?xml version="1.0" standalone="no"?>
<!DOCTYPE svg PUBLIC "-//W3C//DTD SVG 20010904//EN"
 "http://www.w3.org/TR/2001/REC-SVG-20010904/DTD/svg10.dtd">
<svg version="1.0" xmlns="http://www.w3.org/2000/svg"
 width="1537.000000pt" height="1537.000000pt" viewBox="0 0 1537.000000 1537.000000"
 preserveAspectRatio="xMidYMid meet">
<metadata>
Created by potrace 1.11, written by Peter Selinger 2001-2013
</metadata>
<g transform="translate(0.000000,1537.000000) scale(0.100000,-0.100000)"
fill="#000000" stroke="none">
<path d="M1522 14724 l3 -648 3962 -2675 c2179 -1472 3962 -2679 3963 -2683 0
-7 -686 -1026 -704 -1044 -8 -9 -146 80 -541 347 -291 197 -533 359 -537 359
-5 0 -8 -1593 -8 -3540 l0 -3540 -2740 0 -2740 0 0 4100 0 4100 -650 0 -650 0
0 -4750 0 -4751 3118 4 c2169 3 3167 7 3282 15 91 6 235 16 320 22 982 68
1872 238 2575 492 1119 405 2094 1163 2839 2207 875 1227 1337 2599 1426 4231
13 238 13 810 0 1055 -85 1605 -496 2930 -1274 4110 -810 1227 -1896 2087
-3301 2613 -959 359 -2137 533 -4075 603 -162 6 -1189 13 -2283 16 l-1987 6 2
-649z"/>
<path d="M880 11440 l0 -650 650 0 650 0 0 650 0 650 -650 0 -650 0 0 -650z"/>
</g>
</svg>
